<svg xmlns="http://www.w3.org/2000/svg" version="1.1" width="600px" height="600px" viewBox="0 0 200 200" style="overflow:hidden!important;"><g id="svga-group-wrapper"><g id="svga-group-backs-single"></g><g id="svga-group-humanwrap-move" transform="matrix(1,0,0,1,0,-4)"><g id="svga-group-humanwrap"><g id="svga-group-hair-back-move" transform="matrix(1.0000000000000002,-1.457167719820518e-16,1.457167719820518e-16,1.0000000000000002,-4.263256414560601e-14,0)"><g id="svga-group-hair-back" transform="matrix(0.9599996000000002,0,0,0.9997996000000002,4.1416640358550865,0.024184814067055527)"><path id="SvgjsPath17599" d="M156.2 138.1c3.7 10.9 9.7 17.5 2.9 25.5-6.9 8-7.1 9.2-15.4 13.2s-79.6 3.7-86.1-3.7S48 157.6 46 139s-1.1-38.6 1.1-44.4c2.3-5.7 4.9-24 17.7-28.3s63-6.6 72.1-.9 18.9 8.6 20.3 21.5 0 16.3.9 29.5-1.9 21.7-1.9 21.7z" fill="#1b141c" stroke-width="none" opacity="1"></path><path id="SvgjsPath17600" d="M67.1 120.9c1.5 3.2 1.8 10.2-1.6 13.8-2.4 2.6-3.8 7.2 1.3 15.3 5.1 8.1 7.3 9 6.8 13.9s-5.4 16.1-.2 9.5c5.1-6.6 7.4-15.2 4-20.1s-4.9-9.3-4.7-15.6c.2-6.3.4-9.2.4-9.2l-6-7.6zm61.7 5.4c4.4 5.4 9.8 1.5 6.1 8.3-3.7 6.8-7.8 9.3-5.1 15.1 2.7 5.9 10.5 6.3 10.2 13.2-.2 6.8-7.3 16.4-7.3 16.4s6.3-12.4 2.7-16.1-14.9-9.5-10.6-20.6c2.1-5.3 7.2-10.9 5.9-12.6s-1.9-3.7-1.9-3.7z" fill="#2a232b" stroke-width="none" opacity="1"></path></g></g><g id="svga-group-humanbody-back"><path id="SvgjsPath17413" d="m168.5 219.5-1.7-21.5s.7-9-8.8-15.3-23.4-10.1-29.5-14.2c-6.1-4.1-9.2-4.5-9-16.9s.9-40.3.9-40.3H79.6s.7 27.9.9 40.3c.2 12.4-2.9 12.8-9 16.9-6.1 4.1-20 7.9-29.5 14.2S33.2 198 33.2 198l-1.6 21.5h136.9z" fill="#ffc69e" stroke-width="none" opacity="1"></path></g><g id="svga-group-chinshadow-single"><path id="SvgjsPath17409" d="M80.51 152.64c5.7 3.21 7.61 4.03 9.59 6.46 2.4 3 7.1 3.8 9.9 3.8 2.8.1 7.5-.8 9.9-3.8 1.98-2.43 3.97-3.25 9.59-6.44 0-.34 0-.69.01-1.06.2-12.4.9-40.3.9-40.3H79.6s.7 27.9.9 40.3c.01.36.01.7.01 1.04z" fill="#e0945e" stroke-width="none" opacity="0.65"></path></g><g id="svga-group-humanbody-front"><path id="SvgjsPath17414" d="M73.8 175.9c5.1 2.9 11.8 5.2 17.6 5.7.4 0 .4-.6.1-.7-2.8-1.1-5.9-1.7-8.8-2.6-2.9-.9-5.8-2-8.8-2.7-.1-.1-.3.2-.1.3zm35.2 6.2c5.3-.6 11.3-3 15.9-5.8.3-.2.1-.6-.2-.5-2.6.9-5.2 2-7.8 2.9-2.6.9-5.4 1.5-8 2.5-.5.1-.5.9.1.9z" fill="#e0945e" stroke-width="none" opacity="1"></path><path id="SvgjsPath17415" d="m168.4 219.4-2.1-21.4c0-2.2-.5-4.5-1.5-6.6-.9-2.1-2.3-3.9-3.9-5.5s-3.5-2.8-5.5-4c-2-1.2-4.1-2.2-6.2-3.1-4.2-1.9-8.6-3.6-12.9-5.4-2.2-.9-4.3-1.9-6.4-3-1.1-.6-2.1-1.2-3-1.9-1-.6-2-1.2-3-1.9s-2-1.5-2.8-2.6c-.8-1-1.3-2.2-1.7-3.4-.7-2.4-.8-4.8-.8-7.2 0-4.7.2-9.4.3-14.1.2-9.4.6-18.7.9-28l.6.6-20.4-.2-20.4-.1.3-.3.7 28c.1 4.7.3 9.3.4 14 0 2.4-.1 4.7-.8 7.1-.3 1.2-.9 2.3-1.6 3.3-.8 1-1.7 1.8-2.7 2.5s-2 1.3-2.9 2c-.9.6-1.9 1.3-3 1.9-2.1 1.2-4.2 2.1-6.4 3.1-4.3 1.9-8.6 3.6-12.8 5.6-2.1 1-4.2 2.1-6.1 3.2-2 1.2-3.8 2.4-5.4 4-1.6 1.6-2.9 3.4-3.8 5.4-.4 1-.8 2.1-1 3.1-.2 1.1-.4 2.2-.3 3.2v.2l-1.5 21.5-1-1.1 34 .1c11.3 0 22.7.1 34.1.2l34.2.3 34.4.5zm.2.2-34 .4-34.2.3c-11.4.1-22.9.2-34.4.2l-34.4.1h-1.1l.1-1.1 1.7-21.5v.1c-.1-5.1 2.2-9.8 5.7-13.3 1.7-1.7 3.8-3.1 5.8-4.3 2-1.2 4.2-2.2 6.3-3.2 4.3-2 8.7-3.7 13-5.4 2.1-.9 4.3-1.8 6.3-2.9 1-.5 1.9-1.1 3-1.8 1-.6 2-1.2 2.9-1.9.9-.6 1.8-1.4 2.4-2.2.7-.9 1.2-1.9 1.5-2.9.6-2.1.8-4.5.8-6.8 0-4.6-.1-9.3-.2-14l-.6-28v-.3h.3l20.4-.1 20.4-.2h.6v.6c-.1 9.3-.2 18.7-.4 28-.1 4.7-.2 9.4-.2 14 .1 2.3.2 4.6.8 6.7.3 1.1.8 2 1.4 2.9.6.8 1.4 1.6 2.4 2.2.9.6 1.9 1.3 2.9 1.9 1 .7 1.9 1.3 2.9 1.8 2 1.1 4.1 2.1 6.3 3 4.3 1.8 8.6 3.6 12.9 5.6 2.1 1 4.2 2.1 6.2 3.3 2 1.2 4 2.6 5.7 4.3 3.4 3.4 5.6 8.1 5.4 13v-.1l1.4 21.6zm-112.8-.4 1.9-13.8.1 13.8h-2zm88.6 0-1.9-13.8-.1 13.8h2z" fill="#d17d43" stroke-width="none" opacity="1"></path></g><g id="svga-group-clothes-single"><path id="SvgjsPath17574" d="M172 220s-1.3-17.2-2.6-22.7-4-12.6-5.1-13.4c-1.1-.9-1.9-.4-1.9-.4s-1.1-.9-4.5-3.4-18.5-7.2-20.4-8.5c-1.9-1.3-10.2-4.7-10.2-4.7l.2-2.3s-2.6-1.9-3.4-3.4c-.8-1.5-1.3-3.6-1.3-3.6l-.4-2.5s-.6 2-1 3.3-1 6.5-1.5 8.8c-.3 1.5-2.2 4.6-3.5 6.1-1.5 1.6-3.8 3-6.1 4.2-3.4 1.8-4.8 2.4-5.4 3.1-.6.7-.9 2.9-1.9 6l-1.1 2.6s-2.9-3.9-4.5-6.4c-1.6-2.5-3.1-3.4-4-3.4s-5.7.1-6.1-.2-1.8-1.7-2.4-2.8c-.7-1.1-3.4-8.1-4.1-9.5-.7-1.4-2-7.2-2.4-8.5-.3-1.3-.6-3.1-.6-3.1l-.4 1.1s-.8 3.4-1.7 4.9c-.8 1.5-3.4 3.4-3.4 3.4l.2 2.3s-8.3 3.4-10.2 4.7c-1.9 1.3-17 6-20.4 8.5s-4.5 3.4-4.5 3.4-.8-.4-1.9.4c-1.1.9-3.8 7.9-5.1 13.4S28 220 28 220" fill="#dfdfdf" stroke-width="none" opacity="1"></path><path id="SvgjsPath17575" d="M163.9 185.7c-.1-.4-.8-.2-.7.2 2.9 9.4 4.1 19.1 5.7 28.8 0 .2.4.1.4-.1.6-10-1.9-19.6-5.4-28.9zm-3.1-1.1c-2.3 4.8-3.6 10.2-3.9 15.5 0 .2.3.2.3 0 .8-5.4 2.1-10.3 3.9-15.5 0 0-.2-.1-.3 0zm-59.6 12.5c-.2-.1-.4-.2-.2-.4.3-.3-.1-.7-.4-.6-1 .4-.1 2.1.7 1.4.1-.1 0-.3-.1-.4zm-.4 16.4c0-.2-.2-.3-.4-.1-.6.5 0 1.6.7 1.3.1 0 .1-.2 0-.2-.1-.4-.3-.6-.3-1zm6.9-31.2c-.3 0-.7-.1-.7-.5 0-.2-.4-.3-.4-.1-.1.4 0 .7.3.9.3.2.7.2.9 0 .2-.1.1-.3-.1-.3zm-22.9-3.5c-2.3 1.4-4.4 3.4-6.4 5.2-1.9 1.9-4.1 3.8-5.4 6.2-.1.2.1.3.3.2 2.1-1.8 3.7-4 5.7-5.9 2-1.9 4.2-3.5 6.2-5.4.1-.1-.2-.4-.4-.3zm-45.5 5.6c1 7.4 3.8 14.6 5 22.1 0 .1.1.1.1 0-.4-7.2-1-15.8-4.7-22.1-.1-.3-.5-.2-.4 0zm-2.7.6c-4 7.9-6.2 17.4-6.2 26.2 0 .2.4.3.4.1 1.3-9.1 3.3-17.3 6.3-26 .2-.4-.3-.6-.5-.3zm93.5 4.3c-2.5-8.2-4.1-15.7-4.3-24.3 0-.3-.4-.3-.5 0-.7 7.7.5 16.3 3.7 23.5-2.5-3.1-5.3-6.1-8.1-8.8-2-1.9-4.2-4.1-7.2-2.9-.3.1-.2.6.2.6 3.5-.8 6.7 4.4 8.9 6.5 2.2 2.1 4.3 4.4 6.6 6.3.3.2.8-.1.6-.4.1-.2.2-.3.1-.5zm-12.8-14.1c3.4-3.2 5.9-8.9 4.8-13.7-.1-.2-.4-.2-.4.1-.3 2.4-.3 4.8-1.2 7.1-.8 2.3-2.1 4.4-3.5 6.3-.1.1.2.3.3.2zm12.4-3.9c8.6 4.8 18.3 8.1 27.5 11.5.3.1.5-.4.2-.5-8.4-4.8-17.8-9.7-27.4-11.9-.4-.1-.8.6-.3.9z" fill="#eeeeee" stroke-width="none" opacity="1"></path><path id="SvgjsPath17576" d="M158.3 201.6c-.2 2.9-.3 5.7-.3 8.6v4.3c.1 1.4.1 2.9.2 4.3.1-1.4.2-2.9.3-4.3l.3-4.3.6-8.5c.2-2.8.5-5.6 1-8.4.3-1.4.6-2.8 1-4.1.4-1.4.8-2.7 1.4-4.1-1.4 2.5-2.4 5.2-3.1 8-.9 2.8-1.2 5.6-1.4 8.5zm-51.2-20.3c.6 0 1.2.5 1.2 1.2s-.5 1.2-1.2 1.2-1.2-.5-1.2-1.2.6-1.2 1.2-1.2zm-6.2 14.4c.6 0 1.2.5 1.2 1.2s-.5 1.2-1.2 1.2-1.2-.5-1.2-1.2.6-1.2 1.2-1.2zm-.1 17.1c.6 0 1.2.5 1.2 1.2s-.5 1.2-1.2 1.2-1.2-.5-1.2-1.2.6-1.2 1.2-1.2zm15.7-31.9s.1-.1 0 0c.1-.1 0 0 0 0zm55 29.3c-.2-3.3-.5-6.6-.9-9.8-.4-3.3-1.3-6.5-2.3-9.7-.5-1.6-1.1-3.1-1.8-4.7-.4-.8-.7-1.5-1.2-2.3-.4-.5-.8-.8-1.3-1-.3-.1-.6-.2-.9-.2h-.4l-3.6-2.8c-.6-.5-1.4-1-2.1-1.4-.8-.4-1.5-.8-2.2-1.1-3-1.4-6.1-2.5-9.1-3.6l-4.6-1.7c-.8-.3-1.5-.6-2.2-.9-.2-.1-.4-.2-.5-.2-.1-.1-.3-.1-.5-.3-.4-.2-.8-.4-1.1-.6-2.8-1.4-5.7-2.5-8.6-3.7l.1-1.9c0-.2-.1-.4-.2-.5-.7-.5-1.4-1.1-2.1-1.7-.3-.3-.6-.6-.9-1-.3-.3-.5-.7-.7-1.1-.4-.8-.7-1.7-.9-2.6-.2-.9-.3-1.8-.5-2.7 0-.1-.1-.2-.2-.3-1-.8-2.2-.9-2.2-.9-.2 1.8.3 4.7.4 5.4 0 .2-.1.4-.1.6l-.7 4.9c-.1.8-.2 1.6-.4 2.4-.2.7-.5 1.5-.9 2.2-.8 1.4-1.6 2.8-2.7 4-2.3 2.3-5.3 3.6-8.2 5.1-.7.4-1.5.7-2.2 1.2-.4.2-.8.5-1 .9-.3.4-.4.8-.5 1.2-.5 1.6-.9 3.2-1.4 4.7l-.7 1.7-2.6-3.9c-1.1-1.5-1.9-3.3-3.6-4.6-.4-.3-.9-.6-1.5-.8-.3-.1-.7-.1-.9-.1h-.7l-2.8-.1c-.5 0-.9 0-1.4-.1-.2 0-.4 0-.6-.1-.1 0-.1-.1-.2-.2-.6-.6-1.2-1.3-1.7-2.1-.4-.6-.8-1.6-1.1-2.4l-1.1-2.6-2.1-5.2c-.6-1.7-1-3.6-1.5-5.4l-.5-1.6-.1-.3c.1-.2.2-.6.3-1.1.1-1 .2-4 .2-4s-2 .4-2.5.8c-.2.1-.5.3-.6.6l-.4 1.1v.1c-.2.8-.4 1.6-.7 2.3-.2.8-.5 1.5-.9 2.2-.3.6-.8 1.1-1.4 1.7-.6.5-1.2 1.1-1.8 1.5-.3.2-.4.6-.4.9l.2 1.6c-2.8 1.2-5.5 2.3-8.3 3.7-.4.2-.7.4-1.1.6l-.3.2-.2.1c-.1.1-.3.1-.5.2-.7.3-1.5.6-2.2.9l-4.6 1.7c-3.1 1.1-6.1 2.3-9.1 3.6-.8.3-1.5.7-2.2 1.1-.7.4-1.6.9-2.2 1.4l-3.5 2.8h-.4c-.3 0-.6.1-.9.2-.5.2-1 .5-1.3 1-.6.8-.9 1.6-1.2 2.3-.7 1.5-1.3 3.1-1.8 4.7-1 3.1-1.9 6.4-2.3 9.7-.4 3.3-.7 6.6-.9 9.8-.2 3.3-.4 6.6-.6 9.8h.2c.3-3.3.7-6.5 1.1-9.8.4-3.2.8-6.5 1.3-9.7.5-3.2 1.5-6.3 2.6-9.4l1.8-4.5c.3-.7.7-1.5 1.1-2 .1-.2.4-.4.6-.4.1 0 .2-.1.3-.1h.2l.6-.1c.4 1.2.8 2.4 1.2 3.7.4 1.5.8 2.9 1.1 4.4.7 3 1.2 6 1.6 9 .4 3 .8 6.1 1.1 9.1.2 1.5.3 3.1.5 4.6.2 1.5.3 3.1.4 4.6.2-3.1.1-6.2-.1-9.2-.2-3.1-.5-6.1-.9-9.2-.4-3.1-1-6.1-1.8-9.1-.8-2.7-1.7-5.4-3-8h.2l3.9-2.9c.7-.5 1.2-.9 1.9-1.2.7-.4 1.4-.7 2.2-1 3-1.2 6-2.3 9.1-3.5l4.6-1.7c.8-.3 1.5-.6 2.3-.9l.6-.3.3-.2.2-.1c.3-.2.7-.4 1-.5 2.7-1.3 5.6-2.5 8.4-3.7.1 1.4.2 2.8.1 4.1 0 1.3-.1 2.5-.2 3.8-.2 1.2-.4 2.4-.7 3.7-.5 2.5-.9 5.1-1.4 7.6-.5 2.5-.8 5.1-1.3 7.6 0 .3 0 .6.2.8.3.4 1 .4 1.4.1 1.5-1.3 2.9-2.7 4.3-4.1s2.8-2.8 4.1-4.2c.7-.7 1.3-1.5 1.9-2.3l.9-1.2c.2-.4.5-.8.8-1.1l.5-.5c2.3 1.4 4.8 2.3 7.4 2.9.9.2 1.9.4 2.8.5.6 1.8 1.4 3.4 2.3 5l.6 1.2c.2.4.3.9.6 1.3.3.7.7 1.4 1.1 2.2-.1.3-.2.5-.3.9-.2 1.4-.1 2.8-.1 4.1l.2 4c.1 1.3 0 2.6 0 4 0 1.3 0 2.7.1 4l.1 4c.1 1.3.1 2.7.2 4 .1-1.3.2-2.7.3-4l.2-4c.1-2.7.2-5.3.1-8.1-.1-1.4-.2-2.7-.2-4-.1-1.3-.2-2.7-.1-3.9 0-.5.4-1.2.7-1.8l.9-1.8c.5-1.1 1.1-2.1 1.5-3.1.3.1.6 0 .7-.3l1-2.6c.1-.3.1-.5.2-.8 1.1.1 2.1 0 3.2-.2.9-.1 1.8-.4 2.7-.6-1.4 2.6-2.8 5.2-4.1 7.8-.7 1.4-1.6 2.6-2.4 4-.4.7-.8 1.5-.8 2.4 0 .8 0 1.6.1 2.4.2 3.1.5 6.2.7 9.3.1 1.5.1 3.1.1 4.6.1 1.6.1 3.1.2 4.7.2-3.1.4-6.2.4-9.4-.1-3.1-.3-6.2-.5-9.3-.1-.8-.1-1.6-.1-2.3 0-.7.3-1.3.6-2 .7-1.3 1.6-2.7 2.2-4.1 1.2-2.7 2.4-5.4 3.5-8.2.3-.1.6-.2.8-.2 1.2-.4 2.3-.9 3.3-1.6 1-.6 1.9-1.4 2.8-2.2-1.1.5-2 1.1-3.1 1.5-1.1.5-2.2 1-3.3 1.4-2.1.8-4.2 1.3-6.4 1.8.3-1.3.7-2.6 1-3.8.1-.4.2-.8.4-1 .2-.3.5-.5.8-.7l2.1-1.2c.7-.3 1.3-.7 2-1 .9-.1 1.8-.1 2.7.1.6.1 1.1.3 1.5.7.5.4.9.8 1.3 1.2l1 1c1.3 1.4 2.5 3 3.8 4.5 1.7 2 3.7 3.4 5.7 4.9 2 1.5 4.1 2.8 6.2 4.1.2.1.5.2.7.1.5-.1.9-.6.7-1.2-.5-2.2-1.1-4.4-1.6-6.6s-1.1-4.4-1.7-6.6c-.6-2.2-1.2-4.4-1.7-6.6-.4-1.9-.8-3.8-1-5.7 2.7 1.2 5.5 2.4 8 3.8.4.2.7.4 1 .6.1.1.3.2.6.3s.4.2.6.3c.8.4 1.5.6 2.3.9l4.6 1.7 4.6 1.7c1.5.6 3 1.1 4.5 1.8.7.3 1.5.6 2.1 1 .7.4 1.3.7 1.9 1.2l3.9 2.9.9.1h.2c.1 0 .2 0 .4.1s.5.3.6.4c.4.5.8 1.3 1.1 2 .7 1.5 1.2 3 1.8 4.5 1.1 3.1 2.1 6.2 2.6 9.4s.9 6.5 1.3 9.7l1.1 9.8h.2c.2-3.2 0-6.5-.3-9.7zm-89.2-28.1c-.4.4-.7.7-1 1.1-.3.4-.6.7-.9 1.1-.7.7-1.4 1.4-2.1 2-1.4 1.4-2.9 2.6-4.3 3.9l-2.3 2.1c.3-1.6.6-3.2.8-4.9.4-2.5.8-5.1 1.2-7.6.2-1.2.4-2.6.5-3.9.1-1.3.1-2.6 0-3.9-.1-1.6-.3-3.1-.6-4.6.2-.2.3-.5.2-.8l-.2-1.8c.5-.4 1-.9 1.5-1.3.6-.6 1.3-1.3 1.8-2.2.4-.8.7-1.6.9-2.3l.5 1.8c.5 1.8.9 3.7 1.6 5.5l2.2 5.3 1.1 2.6.6 1.3.3.7c.1.2.3.5.4.7.6.9 1.2 1.6 2 2.3l.1.1c-1.5.8-3 1.6-4.3 2.8zm8.8 2c-2.5-.6-5-1.2-7.6-1.9.9-1 2.1-1.9 3.2-2.6l.1.1c.1.1.1.1.3.2.2.1.4.1.4.1.3.1.6.1.8.1H93.7c.3.1.7.3 1 .5 1.3 1 2.3 2.7 3.4 4.2l.5.6c-1.2-.2-2.4-.3-3.7-.5-1.2-.3-2.5-.5-3.8-.8zm8.7 8.3c-.3.6-.7 1.1-1 1.7-.2.3-.3.6-.5.8-.1-.7-.3-1.5-.5-2.2-.1-.5-.3-.9-.4-1.4-.2-.5-.4-.9-.6-1.4-.9-1.6-1.9-3.2-3.1-4.6.4 0 .8.1 1.2.1 1.3.1 2.6 0 3.8-.2l2.8 3.9c0 .1.1.1.2.1l-1.9 3.2zm28.3-15.3.7 3.3c.5 2.2 1 4.4 1.5 6.7.4 1.4.7 2.9 1 4.3-1.4-.9-2.8-1.8-4.1-2.7l-3-2.1c-1-.7-1.9-1.5-2.7-2.3-1.7-1.8-3.4-3.6-5.3-5.2-.5-.4-1-.8-1.5-1.1-.6-.4-1.2-.6-1.9-.6-.8-.1-1.5 0-2.2.2 2.1-1.1 4.2-2.3 5.9-4 1.2-1.2 2-2.7 2.8-4.1.4-.7.8-1.5 1-2.3.2-.8.3-1.6.5-2.4l.8-4.9c.1-.4.1-.8.2-1.2l.3-1.2.2-.6c.1.3.1.6.2 1 .2.9.5 1.9.9 2.8.2.4.4.9.7 1.3.3.4.6.8 1 1.1.6.6 1.2 1.2 1.9 1.7l-.2 2c0 .2.1.5.3.6 0 2.1.2 4.2.5 6.3.1 1.2.3 2.3.5 3.4z" fill="#c0c0c0" stroke-width="none" opacity="1"></path></g><g id="svga-group-head" transform="matrix(1.0000000000000002,-1.457167719820518e-16,1.457167719820518e-16,1.0000000000000002,-4.263256414560601e-14,0)"><g id="svga-group-ears-left-move" transform="matrix(1,0,0,1,3,0)"><g id="svga-group-ears-left"><path id="SvgjsPath17362" d="M64.2 96.3c-.2-.3-3.1-4-5.5-6.3-2.5-2.3-3.2-2.2-4.4-.8s-2.7 8.5-2.3 11.7 3.3 8.2 4.9 11c1.6 2.8 3.1 6.3 4.8 6 1.8-.3 4.2-4.3 5.3-7.3 1.2-3 .6-10.3-2.8-14.3z" fill="#ffc69e" stroke-width="none" opacity="1"></path><path id="SvgjsPath17363" d="M67.9 104.8c.1.8.2 1.6.2 2.4s0 1.6-.2 2.4l-.3 1.2c-.1.4-.3.7-.4 1-.3.7-.6 1.3-.9 2-.7 1.2-1.4 2.4-2.4 3.4-.5.5-1 1-1.7 1.2-.3.1-.8.1-1.2 0-.4-.2-.7-.4-1-.7-1.2-1.2-1.8-2.6-2.5-4s-1.4-2.7-2.1-4.1c-.7-1.4-1.4-2.8-2-4.2-.3-.7-.6-1.4-.9-2.2-.3-.7-.5-1.5-.6-2.3-.2-1.6 0-3.2.1-4.7.2-1.5.4-3 .8-4.5.2-.7.4-1.5.7-2.2.1-.2.2-.3.3-.5s.2-.4.3-.5c.2-.3.5-.5.8-.7s.7-.3 1.1-.3c.4.1.7.2 1.1.4.6.4 1.1.9 1.7 1.4 2 2.1 3.7 4.5 5.6 6.8 1.8 2.5 2.9 5.6 3.5 8.7zm-9.6-14.6c-1-.8-2.2-1.7-2.9-1.2-.2.1-.4.3-.6.6-.1.1-.2.2-.2.3-.1.1-.1.3-.2.4-.3.6-.5 1.2-.7 1.9-.4 1.3-.8 2.8-1.1 4.2-.3 1.4-.5 3-.4 4.4.1.7.3 1.5.5 2.2l.9 2.1c.6 1.4 1.4 2.7 2.2 4s1.6 2.6 2.3 3.9c.4.7.7 1.3 1.1 1.9.4.6.8 1.2 1.2 1.6s.8.6 1.2.4.9-.5 1.3-1c.8-.9 1.5-2 2.2-3.2l.9-1.8c.1-.3.3-.6.4-.9l.2-.4c0-.2.1-.3.1-.5.3-1.3.3-2.8.3-4.3-.1-1.5-.3-3-.8-4.5s-1.2-2.9-2.1-4c-1.7-2.2-3.7-4.4-5.8-6.1z" fill="#f0ac7d" stroke-width="none" opacity="1"></path><path id="SvgjsPath17364" d="M54.1 102.4c-.2-2.1-.4-7.4.8-9 2-2.7 5.6 6.1 6.5 8.8 0 .1.1.2.1.2.1.3-.1.7-.4.6-.4-.2-.8-.6-1.2-.8-1.1-.5-1.5.4-1.2 1.7.4 1.7 1.3 2.7 2.1 4 .1.2 0 .4-.2.3-1.5-.9-3.3-4.2-2.9-6.2.3-1.8 1.8-1.7 2.9-.8-.7-1.6-1.4-3.1-2.3-4.5-.6-.9-1.1-1.9-2-2-1.1-.2-.9.3-1.1 1.7-.8 4.6-.3 9.7 2.4 13.7.1.1 0 .2-.1.1-2-2.2-3.1-4.7-3.4-7.8z" fill="#e0945e" stroke-width="none" opacity="1"></path></g></g><g id="svga-group-ears-right-move" transform="matrix(1,0,0,1,-3,0)"><g id="svga-group-ears-right"><path id="SvgjsPath17365" d="M135.8 96.3c.2-.3 3.1-4 5.5-6.3 2.5-2.3 3.2-2.2 4.4-.8s2.7 8.5 2.3 11.7-3.3 8.2-4.9 11c-1.6 2.8-3.1 6.3-4.8 6-1.8-.3-4.2-4.3-5.3-7.3-1.2-3-.6-10.3 2.8-14.3z" fill="#ffc69e" stroke-width="none" opacity="1"></path><path id="SvgjsPath17366" d="M135.7 96.3c1.8-2.3 3.5-4.7 5.6-6.8.5-.5 1-1 1.7-1.4.3-.2.7-.4 1.1-.4.4-.1.8.1 1.1.3.3.2.6.5.8.7.1.1.2.3.3.5s.2.3.3.5c.3.7.5 1.4.7 2.2.4 1.5.6 3 .8 4.5.1 1.5.3 3.1.1 4.7-.1.8-.3 1.6-.6 2.3-.3.8-.6 1.5-.9 2.2-.6 1.4-1.3 2.8-2 4.2-.7 1.4-1.4 2.7-2.1 4.1-.7 1.4-1.4 2.8-2.5 4-.3.3-.6.6-1 .7s-.9.2-1.2 0c-.7-.2-1.2-.7-1.7-1.2-1-1-1.7-2.2-2.4-3.4-.3-.6-.6-1.3-.9-2-.1-.3-.3-.7-.4-1l-.3-1.2c-.1-.8-.2-1.6-.2-2.4s.1-1.6.2-2.4c.5-3.3 1.6-6.4 3.5-8.7zm.1.1c-.9 1.1-1.6 2.5-2.1 4s-.7 3-.8 4.5 0 3 .3 4.3c0 .2.1.3.1.5l.2.4c.1.3.3.6.4.9l.9 1.8c.6 1.2 1.4 2.3 2.2 3.2.4.4.9.8 1.3 1 .4.2.8 0 1.2-.4s.8-1 1.2-1.6.8-1.3 1.1-1.9c.7-1.3 1.6-2.6 2.3-3.9.8-1.3 1.5-2.6 2.2-4l.9-2.1c.3-.7.5-1.5.5-2.2.1-1.5-.1-3-.4-4.4-.3-1.4-.6-2.9-1.1-4.2-.2-.7-.5-1.3-.7-1.9-.1-.1-.1-.3-.2-.4-.1-.1-.1-.2-.2-.3l-.6-.6c-.7-.6-1.8.4-2.9 1.2-2 1.6-4 3.8-5.8 6.1z" fill="#f0ac7d" stroke-width="none" opacity="1"></path><path id="SvgjsPath17367" d="M145.9 102.4c.2-2.1.4-7.4-.8-9-2-2.7-5.6 6.1-6.5 8.8 0 .1-.1.2-.1.2-.1.3.1.7.4.6.4-.2.8-.6 1.2-.8 1.1-.5 1.5.4 1.2 1.7-.4 1.7-1.3 2.7-2.1 4-.1.2 0 .4.2.3 1.5-.9 3.3-4.2 2.9-6.2-.3-1.8-1.8-1.7-2.9-.8.7-1.6 1.4-3.1 2.3-4.5.6-.9 1.1-1.9 2-2 1.1-.2.9.3 1.1 1.7.8 4.6.3 9.7-2.4 13.7-.1.1 0 .2.1.1 2-2.2 3.1-4.7 3.4-7.8z" fill="#e0945e" stroke-width="none" opacity="1"></path></g></g><g id="svga-group-faceshape-wrap" transform="matrix(0.9599996000000002,0,0,0.9997996000000002,4.000151542863449,0.019368660305758567)"><g id="svga-group-faceshape-single"><path id="SvgjsPath17394" d="M141 85.4c-1.2-28.5-19.7-44.1-41-44.1-21.4 0-39.8 15.6-41 44.1 0 0-.5 13.3 1.9 24.8 1.9 9.1 6.3 23.23 15.4 28.53s11.45 6.19 13.95 9.09c2.4 3 7.06 3.77 9.86 3.77s7.14-.73 9.54-3.63c2.4-3 4.89-3.79 13.99-9.09s13.86-19.66 15.66-28.66C141.5 98.7 141 85.4 141 85.4z" fill="#ffc69e" stroke-width="none" opacity="1"></path><path id="SvgjsPath17395" d="M123.7 139.4c9.1-5.4 13.6-20.1 15.4-29.1 2.3-11.5 1.9-24.8 1.9-24.8-1.2-28.5-19.7-44.1-41-44.1S60.2 57 59 85.4c0 0-.5 13.3 1.9 24.8 1.9 9.1 6.3 23.8 15.4 29.1 9.1 5.4 11.4 6 13.9 8.9 2.4 3 7.1 3.8 9.9 3.8s7.5-.9 9.9-3.8c2.3-2.9 4.6-3.4 13.7-8.8zm-23.61 11.24c-1.3.08-2.89-.27-4.19-.67-.6-.2-1.3-.4-1.8-.71-.6-.3-1.1-.61-1.5-.91l-.6-.61s-2.2-2.32-3-2.83c-1.5-1.01-3-1.82-4.4-2.62l-4.2-2.32s-5.99-3.69-7.04-4.76c-1.42-1.46-2.59-3.07-3.39-4.28-1.7-2.52-2.38-5.09-3.58-7.91-2.3-5.75-4.1-11.91-5.1-18.16-.3-1.61-.5-3.13-.7-4.74l-.3-2.42c-.1-.81-.1-1.61-.2-2.42l-.3-4.84c0-1.61-.1-3.23-.1-4.74.2-6.36 1.3-12.71 3.8-18.57 2.4-5.85 6.2-11.1 11-15.04.6-.5 1.2-1.01 1.8-1.41.3-.2.6-.4.9-.71l1-.61.5-.3.5-.3 1-.61c.3-.2.7-.3 1-.5s.7-.4 1-.5c.7-.3 1.4-.61 2.1-.91.4-.1.7-.3 1.1-.4l1.1-.4.5-.2c.2-.1.4-.1.5-.2l1.1-.3c.4-.1.7-.2 1.1-.3s.7-.2 1.1-.3c.7-.1 1.5-.3 2.2-.4l1.1-.2 1.1-.1c1.5-.2 3-.2 4.5-.2 3 0 6.1.4 9 1.01.4.1.7.2 1.1.3s.7.2 1.1.3c.7.2 1.5.4 2.2.71l1.1.4 1.1.4c.7.3 1.4.61 2.1.91 2.7 1.31 5.3 2.93 7.7 4.84 2.4 1.92 4.6 4.24 6.5 6.66 1.9 2.52 3.5 5.25 4.8 8.17 2.6 5.85 3.9 12.21 4.2 18.67v4.84c-.1 1.61-.1 3.23-.2 4.84-.1.81-.1 1.61-.2 2.42l-.3 2.42c-.2 1.61-.4 3.23-.7 4.74-.5 3.13-1.3 6.26-2.2 9.28s-2 6.05-3.3 8.88-2.7 5.65-4.5 8.07c-1.7 2.52-3.4 4.84-5.7 6.35-.3.2-6.33 3.9-7.73 4.71-1.4.81-4.1 2.65-5.6 3.76-2.91 2.95-4.79 4.38-10.07 4.72z" fill="#d17d43" stroke-width="none" opacity="1"></path></g></g><g id="svga-group-mouth-single-move" transform="matrix(1,0,0,1,0,2)"><g id="svga-group-mouth-single" transform="matrix(0.8999996000000001,0,0,0.8999996000000001,10.266866171060173,12.996771347228986)"><path id="SvgjsPath17350" d="M90 128.1s2 2.6 4 3.8 9.4 1.3 13.4-.2 7.5-6.6 8.1-7.8c0 0-2.9 1.9-7.1 1.5-4.3-.3-13.7.8-15.6 1.6s-2.8 1.1-2.8 1.1z" fill="#fd989f" stroke-width="none" opacity="1" transform="translate(0 3)"></path><path id="SvgjsPath17351" d="M117.2 121.6c-.5-.4-1-.6-1.6-.4-.4.1-.4.7-.1.8.1.1.2.1.3.2l-.6.6c-.7.8-2.3 2.2-5.3.8-3-1.4-5.1-1.8-7.1-.5s-2.7.9-4.6.2c-1.9-.6-4.3.4-5.5 1.7-1.2 1.3-2.2 2.6-4.1 2s-.8.5-.8.5c.2.1 1.5 1.1 2.5 1.4 1.1.2 2.1-.5 4.5-1.2s8.1-1.2 11.9-1.1c5.4.2 6.8-.6 8.3-1.8.7-.6 1.2-1.1 1.5-1.6.1.2.2.4.4.5.3.2.8.1.9-.3.2-.8-.2-1.4-.6-1.8z" fill="#f5878f" stroke-width="none" opacity="1" transform="translate(0 3)"></path><path id="SvgjsPath17352" d="M95.7 129.5c3.4 0 7.4.1 10.8-.9.5-.1.5-.8 0-1-3.4-1-7.7-.1-10.9 1.2-.3.2-.3.7.1.7z" fill="#ffa6ac" stroke-width="none" opacity="1" transform="translate(0 3)"></path></g></g><g id="svga-group-eyes-left-move" transform="matrix(1,0,0,1,0,0)"><g id="svga-group-eyes-left" transform="matrix(0.9499998000000001,0,0,0.9499998000000001,3.992944858129121,4.900019599999993)"><g id="svga-group-eyesback-left"><path id="SvgjsPath17488" d="M91.1 99.7s-.2 1.1-.7 1.1c-.6 0-.8-.6-.8-.6s-3.7.2-5.1.6-5.3.6-6.5.3c-1.2-.3-3.2-1.2-4-2.6-.9-1.4-1.2-3.1-1.2-3.1S80 92.5 88.4 93c0 0 2.7 4.6 2.7 6.7z" fill="#ffffff" stroke-width="none" opacity="1"></path></g><g id="svga-group-eyesiriswrapper-left" transform="matrix(1,0,0,1,0,0)"><g id="svga-group-eyesiriscontrol-left" transform="matrix(1,0,0,1,0,0)"><g id="svga-group-eyesiris-left"><path id="SvgjsPath17430" d="M82 91.2c2.9 0 5.2 2.3 5.2 5.2s-2.3 5.2-5.2 5.2-5.2-2.3-5.2-5.2 2.3-5.2 5.2-5.2z" fill="#341c17" stroke-width="none" opacity="1"></path><path id="SvgjsPath17431" d="M82 101.8c-3 0-5.4-2.4-5.4-5.4S79 91 81.9 91s5.4 2.4 5.4 5.4c.1 3-2.3 5.4-5.3 5.4zm-.1-10.2c-2.7 0-4.9 2.2-4.9 4.9s2.2 4.9 4.9 4.9 4.9-2.2 4.9-4.9c0-2.8-2.2-5-4.9-4.9z" fill="#24110c" stroke-width="none" opacity="1"></path><path id="SvgjsPath17432" d="M82 92c2.4 0 4.4 2 4.4 4.4s-2 4.4-4.4 4.4-4.4-2-4.4-4.4 2-4.4 4.4-4.4z" fill="#3b231d" stroke-width="none" opacity="1"></path><path id="SvgjsPath17433" d="M82 92.6c2.1 0 3.8 1.7 3.8 3.8s-1.7 3.8-3.8 3.8-3.8-1.7-3.8-3.8 1.7-3.8 3.8-3.8z" fill="#432a24" stroke-width="none" opacity="1"></path><path id="SvgjsPath17434" d="M82 93.6c1.5 0 2.8 1.3 2.8 2.8s-1.3 2.8-2.8 2.8-2.8-1.3-2.8-2.8 1.3-2.8 2.8-2.8z" fill="#000000" stroke-width="none" opacity="1"></path><path id="SvgjsPath17435" d="M80.7 93.6c.5 0 1 .4 1 1s-.4 1-1 1c-.5 0-1-.4-1-1s.5-1 1-1zm3.2 4.4c.2 0 .4.2.4.4s-.2.4-.4.4-.4-.2-.4-.4c.1-.2.2-.4.4-.4z" fill="#ffffff" stroke-width="none" opacity="1"></path></g></g></g><g id="svga-group-eyesfront-left"><path id="SvgjsPath17496" d="M70.7 98c0 6.9 4.9 12.5 11 12.5s11-5.6 11-12.5-4.9-12.5-11-12.5-11 5.6-11 12.5zm3.3.5c-.9-1.4-1.2-3.1-1.2-3.1S80 92.5 88.4 93c0 0 2.7 4.6 2.7 6.7 0 0-.2 1.1-.7 1.1s-.8-.6-.8-.6-3.7.2-5.1.6c-1.4.3-5.3.6-6.5.3-1.2-.4-3.2-1.3-4-2.6z" fill="#ffc69e" stroke-width="none" opacity="1"></path><path id="SvgjsPath17497" d="M90.7 91.6c-5.4-.6-10.5-.6-15.8 1-.2 0-.2-.2-.1-.2 5.1-1.7 10.6-2.4 15.9-1.1.3-.1.2.3 0 .3z" fill="#f0ac7d" stroke-width="none" opacity="1"></path><path id="SvgjsPath17498" d="M67.1 95.4c1.3 1.3 3.1 1.2 4.9.8 0 1 .4 1.9 1.2 2.7-.6.1-1.2.4-1.5.9-.1.2.1.3.2.2.6-.3 1.1-.5 1.8-.6.3.3.6.5.9.7-.1.1-.2.1-.3.2-.3.2-.6.4-.7.7 0 .2.1.3.3.3.3-.1.5-.4.7-.5.2-.1.4-.2.5-.3.4.3.9.5 1.3.6-.1.1-.2.2-.2.3-.2.3-.4.7-.3 1 .1.1.3.2.4.1.2-.2.2-.5.3-.7.1-.2.2-.3.4-.5 4 1 8.5-.5 12.5-.7v.1c.3.5.7.9 1.4.7.7-.2.7-1 .6-1.6-.1-2-.7-4.3-2-6 .5.2.9.4 1.2.8.2.2.6.1.5-.2-.3-1.3-1.3-1.8-2.6-2-2.3-.3-4.9 0-7.2.2-.6.1-1.2.1-1.8.2-.3-.1-.5-.1-.8-.3-.5-.2-.9-.5-1.4-.7-.2-.1-.4.1-.3.3.3.4.7.7 1.2.9-.4.1-.7.1-1.1.2-.5 0-1 0-1.5-.1-.7-.2-1.4-.6-2.1-.7-.2 0-.2.2-.2.3.3.6.7.9 1.3 1.1-1.7.1-3.2 0-4.7-1.1-.2-.1-.4.1-.3.3.5.9 1.3 1.4 2.2 1.6-1.5.3-2.9.4-4.6.2-.2 0-.4.4-.2.6zm6.2.4c1.1-.3 2.1-.7 3-1 2.3-.7 4.7-1 7.1-1.1 1.2-.1 3.1-.4 4.7-.3v.1c.6 1.2 1.4 2.3 1.8 3.6.3.8 1.3 3.6-.2 3.3.1-.1.1-.4-.2-.5-3.1-.3-6.1.7-9.2.7-2 0-4.1-.5-5.6-1.9-.7-.9-1-1.9-1.4-2.9z" fill="#000000" stroke-width="none" opacity="1"></path></g></g></g><g id="svga-group-eyes-right-move" transform="matrix(1,0,0,1,0,0)"><g id="svga-group-eyes-right" transform="matrix(0.9499998000000001,0,0,0.9499998000000001,6.007094569663991,4.900019599999993)"><g id="svga-group-eyesback-right"><path id="SvgjsPath17489" d="M108.9 99.7s.2 1.1.7 1.1c.6 0 .8-.6.8-.6s3.7.2 5.1.6 5.3.6 6.5.3c1.2-.3 3.2-1.2 4-2.6.9-1.4 1.2-3.1 1.2-3.1s-7.2-2.8-15.6-2.4c0 0-2.7 4.6-2.7 6.7z" fill="#ffffff" stroke-width="none" opacity="1"></path></g><g id="svga-group-eyesiriswrapper-right" transform="matrix(1,0,0,1,0,0)"><g id="svga-group-eyesiriscontrol-right" transform="matrix(1,0,0,1,0,0)"><g id="svga-group-eyesiris-right"><path id="SvgjsPath17436" d="M118 91.2c2.9 0 5.2 2.3 5.2 5.2s-2.3 5.2-5.2 5.2-5.2-2.3-5.2-5.2 2.3-5.2 5.2-5.2z" fill="#341c17" stroke-width="none" opacity="1"></path><path id="SvgjsPath17437" d="M118.1 101.8c-3 0-5.4-2.4-5.4-5.4S115 91 118 91s5.4 2.4 5.4 5.4c.1 3-2.3 5.4-5.3 5.4zm-.1-10.2c-2.7 0-4.9 2.2-4.9 4.9s2.2 4.9 4.9 4.9 4.9-2.2 4.9-4.9c0-2.8-2.2-5-4.9-4.9z" fill="#24110c" stroke-width="none" opacity="1"></path><path id="SvgjsPath17438" d="M118 92c2.4 0 4.4 2 4.4 4.4s-2 4.4-4.4 4.4-4.4-2-4.4-4.4 2-4.4 4.4-4.4z" fill="#3b231d" stroke-width="none" opacity="1"></path><path id="SvgjsPath17439" d="M118 92.6c2.1 0 3.8 1.7 3.8 3.8s-1.7 3.8-3.8 3.8-3.8-1.7-3.8-3.8 1.7-3.8 3.8-3.8z" fill="#432a24" stroke-width="none" opacity="1"></path><path id="SvgjsPath17440" d="M118 93.6c1.5 0 2.8 1.3 2.8 2.8s-1.3 2.8-2.8 2.8-2.8-1.3-2.8-2.8 1.3-2.8 2.8-2.8z" fill="#000000" stroke-width="none" opacity="1"></path><path id="SvgjsPath17441" d="M116.8 93.6c.5 0 1 .4 1 1s-.4 1-1 1-1-.4-1-1 .4-1 1-1zM120 98c.2 0 .4.2.4.4s-.2.4-.4.4-.4-.2-.4-.4.2-.4.4-.4z" fill="#ffffff" stroke-width="none" opacity="1"></path></g></g></g><g id="svga-group-eyesfront-right"><path id="SvgjsPath17499" d="M118.3 85.5c-6.1 0-11 5.6-11 12.5s4.9 12.5 11 12.5 11-5.6 11-12.5-5-12.5-11-12.5zM122 101c-1.2.3-5.1 0-6.5-.3-1.4-.3-5.1-.6-5.1-.6s-.2.7-.8.6-.7-1.1-.7-1.1c.1-2.1 2.7-6.7 2.7-6.7 8.4-.5 15.6 2.4 15.6 2.4s-.3 1.7-1.2 3.1c-.8 1.4-2.8 2.3-4 2.6z" fill="#ffc69e" stroke-width="none" opacity="1"></path><path id="SvgjsPath17502" d="M109.3 91.6c5.4-.6 10.5-.6 15.8 1 .2 0 .2-.2.1-.2-5.1-1.7-10.6-2.4-15.9-1.1-.3-.1-.2.3 0 .3z" fill="#f0ac7d" stroke-width="none" opacity="1"></path><path id="SvgjsPath17503" d="M132.7 94.9c-1.7.2-3.1.1-4.6-.2.9-.2 1.7-.7 2.2-1.6.1-.2-.1-.5-.3-.3-1.5 1.1-3.1 1.2-4.7 1.1.6-.2 1-.6 1.3-1.1.1-.1 0-.3-.2-.3-.7.1-1.4.5-2.1.7-.5.1-1 .2-1.5.1-.4-.1-.7-.1-1.1-.2.5-.2.9-.5 1.2-.9.1-.2-.1-.4-.3-.3-.5.2-.9.5-1.4.7-.3.1-.5.2-.8.3-.6-.1-1.2-.1-1.8-.2-2.3-.2-4.9-.5-7.2-.2-1.3.2-2.3.7-2.6 2-.1.3.3.4.5.2.3-.4.7-.6 1.2-.8-1.2 1.7-1.8 4-2 6 0 .6-.1 1.4.6 1.6.6.2 1.1-.2 1.4-.7v-.1c4 .2 8.5 1.7 12.5.7.1.1.3.3.4.5.1.2.1.5.3.7.1.1.3.1.4-.1.2-.3-.1-.7-.3-1-.1-.1-.2-.2-.2-.3.4-.1.9-.4 1.3-.6.2.1.3.2.5.3.2.2.5.5.7.5.2.1.3-.1.3-.3-.1-.3-.4-.5-.7-.7-.1-.1-.2-.1-.3-.2.3-.2.6-.5.9-.7.6.1 1.2.4 1.8.6.1.1.3-.1.2-.2-.3-.5-.9-.8-1.5-.9.7-.8 1.2-1.7 1.2-2.7 1.8.4 3.5.5 4.9-.8.2-.3 0-.7-.2-.6zm-7.6 3.8c-1.5 1.4-3.6 1.9-5.6 1.9-3.1 0-6.1-1-9.2-.7-.3 0-.3.3-.2.5-1.5.3-.4-2.5-.2-3.3.4-1.3 1.2-2.4 1.8-3.6v-.1c1.6-.2 3.5.2 4.7.3 2.4.2 4.8.5 7.1 1.1.9.3 1.9.7 3 1-.2 1-.5 2-1.4 2.9z" fill="#000000" stroke-width="none" opacity="1"></path></g></g></g><g id="svga-group-facehighlight-single"></g><g id="svga-group-eyebrows-left-move" transform="matrix(1,0,0,1,0,1)"><g id="svga-group-eyebrows-left-rotate" transform="matrix(1,1.7453292519943295e-9,-1.7453292519943295e-9,1,1.4812995630109071e-7,-1.3811903443183837e-7)"><g id="svga-group-eyebrows-left" transform="matrix(0.9499998000000001,0,0,0.9499998000000001,3.956834789373005,4.243627737992853)"><path id="SvgjsPath17550" d="m66.6 88.3.1-.1c.2-.3.5-.5.8-.7.3-.9 1.1-1.6 1.7-2.3.7-.8 1.3-1.6 2-2.3.4-.7.9-1.8 1.7-2 .1 0 .3 0 .3.2.1 0 .1-.1.2-.1h.3c1.8-.1 4.1.2 5.8.5 1.2 0 2.5.3 3.7.4 1.8.2 3.6 0 5.3.2.1 0 .2-.1.3-.1.1 0 .2-.1.2 0h.1c.2-.1.5 0 .5.2.2-.1.4-.2.7-.2.1 0 .2 0 .3.1.2-.1.4.1.3.2-.3.4-.6.9-1 1.3.5-.2 1.1-.4 1.6-.5.2-.2.3-.4.5-.7.2-.2.6 0 .5.3-.2.8-.7 1.5-1.2 2.2-.2.4-.4.7-.6 1.1-.3.4-.5 1-.9 1.3-.4.3-1 .4-1.6.2-1.8 0-4.3.1-5.9-.8-.3 0-.6-.1-.9-.2-1.1.4-2.4.1-3.6-.1-1.1-.1-2.3-.2-3.4-.5-.7.2-1.5.3-2.2.4-.4.1-1 .2-1.4.1l-.9.6c-.4.3-.9.6-1.4.7-.1 0-.1.1-.1.1-.4.3-.8.7-1.3.8-.1 0-.2-.1-.2-.2-.3 0-.3-.1-.3-.1z" fill="#2a232b" stroke-width="none" opacity="1"></path><path id="SvgjsPath17551" d="M72.6 81.4c3 .3 6.3 2.6 7.7 5 .1.1-.1.2-.2.1-1.1-1.1-2.2-2.2-3.6-3.1-1.3-.8-2.7-1.2-4.1-1.8 0 0 .1-.2.2-.2zm-3 3.6c.2-.1.5-.1.7-.1-.2 0-.3-.1-.5-.1s-.2-.3 0-.3c1.7-.4 3.5.6 4.8 1.3.1.1 0 .2-.1.2-.8-.3-1.5-.6-2.3-.8h-.1c.3.1.7.3.9.5.2.1 0 .3-.2.2-.5-.2-1.1-.4-1.7-.5-.5-.1-1.1 0-1.6-.1-.1 0-.1-.3.1-.3zm1.5-2.8c2.4-.2 5.7 1.9 6.9 3.8.1.1-.1.3-.2.2-1.1-.8-2-1.7-3.3-2.4-1.1-.6-2.4-.8-3.5-1.3-.1-.1 0-.3.1-.3zm7.9-.9c1.8 1.2 2.9 3.2 3.3 5.2.1.2-.3.3-.4.1-.6-2-1.8-3.4-3.1-5-.1-.2.1-.4.2-.3zm5.1 2.6c0-.2.2-.2.3 0 .4 1 .3 2.1-.1 3-.1.1-.2.1-.2-.1.2-1 .1-1.9 0-2.9zm3.3 3.3c1-.5 1.9-.9 2.7-1.7.7-.8 1.2-1.7 1.7-2.6 0-.1.2 0 .2.1-.7 1.8-2 4.3-4.4 4.4-.3 0-.3-.1-.2-.2z" fill="#3a353a" stroke-width="none" opacity="1"></path><path id="SvgjsPath17552" d="M65.5 89.1c-.1.1.1.2.2.2s.1.1.2 0c1-.2 1.9-.9 2.8-1.4 1-.6 2-1.1 2.9-1.7 5.8.6 11.6 1.3 17.4 1.5.2 0 .2-.3.1-.3-1.2-.2-2.3-.3-3.5-.5 1.9-.6 3.4-2.7 3.7-4.4 0-.2-.2-.3-.3-.1-.4.9-.9 1.8-1.6 2.6-.6.7-1.4 1.1-2.1 1.7-.1.1-.1.2 0 .3-.2 0-.4-.1-.6-.1.7-1.5.8-3.2.4-4.7 1.9.1 3.9.2 5.8-.1.2 0 .2-.3 0-.3-2-.3-4.1-.3-6.1-.4-.1-.1-.1-.1-.2 0-.7 0-1.4-.1-2.1-.1-3.1-.2-6.3-.5-9.4-.9-.2 0-.4.1-.5.3-.1-.1-.4-.2-.6 0-1.2 1.3-2.2 2.7-3.2 4.1-1.1 1.2-2.4 2.7-3.3 4.3zm8.6-8c0 .1 0 .2.1.2 1.3.7 2.7 1.4 3.9 2.4 1 .8 1.8 1.8 2.6 2.7-1.7-.2-3.4-.3-5.1-.5-1.4-1.2-3.1-2.1-5-2.2.8-.9 1.5-1.8 2.1-2.8v-.1c.1 0 .1.1.2.1.4.1.8.1 1.2.2zm7 5.3c-1.2-2.2-3.6-4.3-6.2-5.2 1.6.2 3.2.3 4.8.5.5.7 1.2 1.4 1.6 2.2.5.9.7 1.8 1 2.7-.4-.1-.8-.2-1.2-.2zm3.3.4c-.5-.1-1-.1-1.5-.2-.1-1.7-.9-3.7-2.3-4.9.4 0 .9.1 1.3.1.9.1 1.8.1 2.7.2.3 1.7.3 3.1-.2 4.8zm-16 .6c-.5.2-1 .5-1.5.7.8-.9 1.5-1.9 2.3-2.8.4-.5.8-.9 1.2-1.4 1.7.5 3.3 1 4.8 1.9-1.2-.1-2.4-.2-3.7-.3-.1 0-.2 0-.3.1-.4 0-.8 0-1.2.1-.4.1-.9.1-1.2.3-.1.1-.1.2 0 .3.4.1.8 0 1.3-.1.4-.1.7-.1 1.1-.2v.1c-1 .4-1.9.8-2.8 1.3zm21.2-3.7c-.2 0-.3-.2-.1-.4.5-.3 1-.5 1.5-.8.5-.3.9-.7 1.3-1.1.1-.1.2-.1.2-.1.1-.1.3 0 .3.1-.4 2.2-1.2 4.5-3 6.1-.2.2-.6-.1-.4-.3 1.2-1.6 2.2-3.1 2.8-4.9-.6.8-1.6 1.5-2.6 1.4z" fill="#1b141c" stroke-width="none" opacity="1"></path></g></g></g><g id="svga-group-eyebrows-right-move" transform="matrix(1,0,0,1,0,1)"><g id="svga-group-eyebrows-right-rotate" transform="matrix(1,1.7453292519943295e-9,-1.7453292519943295e-9,1,1.4756759014744603e-7,-2.10835779057561e-7)"><g id="svga-group-eyebrows-right" transform="matrix(0.9499998000000001,0,0,0.9499998000000001,6.040024121852866,4.22751687185287)"><path id="SvgjsPath17553" d="m133.4 88.3-.1-.1c-.2-.3-.5-.5-.8-.7-.3-.9-1.1-1.6-1.7-2.3-.6-.8-1.3-1.6-2-2.3-.4-.7-.9-1.8-1.7-2-.1 0-.3 0-.3.2-.1 0-.1-.1-.2-.1h-.3c-1.8-.1-4.1.2-5.8.5-1.2 0-2.5.3-3.7.4-1.8.2-3.6 0-5.3.2-.1 0-.2-.1-.3-.1-.1 0-.2-.1-.2 0h-.1c-.2-.1-.5 0-.5.2-.2-.1-.4-.2-.7-.2-.1 0-.2 0-.3.1-.2-.1-.4.1-.3.2.3.4.6.9 1 1.3-.5-.2-1.1-.4-1.6-.5-.2-.2-.3-.4-.5-.7-.2-.2-.6 0-.5.3.2.8.7 1.5 1.2 2.2.2.4.4.7.6 1.1.3.4.5 1 .9 1.3.4.3 1 .4 1.6.2 1.8 0 4.3.1 5.9-.8.3 0 .6-.1.9-.2 1.1.4 2.4.1 3.6-.1 1.1-.1 2.3-.2 3.4-.5.7.2 1.5.3 2.2.4.5.1 1 .2 1.5.1l.9.6c.4.3.9.6 1.4.7.1 0 .1.1.1.1.4.3.8.7 1.3.8.1 0 .2-.1.2-.2.2 0 .2-.1.2-.1z" fill="#2a232b" stroke-width="none" opacity="1"></path><path id="SvgjsPath17554" d="M127.4 81.4c-3 .3-6.3 2.6-7.7 5-.1.1.1.2.2.1 1.1-1.1 2.2-2.2 3.6-3.1 1.3-.8 2.7-1.2 4.1-1.8 0 0-.1-.2-.2-.2zm3 3.6c-.2-.1-.5-.1-.7-.1.2 0 .3-.1.5-.1s.2-.3 0-.3c-1.6-.4-3.5.6-4.8 1.3-.1.1 0 .2.1.2.8-.3 1.5-.6 2.3-.8h.1c-.3.1-.7.3-.9.5-.2.1 0 .3.2.2.5-.2 1.1-.4 1.7-.5.5-.1 1.1 0 1.6-.1.1 0 .1-.3-.1-.3zm-1.5-2.8c-2.4-.2-5.7 1.9-6.9 3.8-.1.1.1.3.2.2 1.1-.8 2-1.7 3.3-2.4 1.1-.6 2.4-.8 3.5-1.3.1-.1 0-.3-.1-.3zm-7.9-.9c-1.8 1.2-2.9 3.2-3.3 5.2-.1.2.3.3.4.1.6-2 1.8-3.4 3.1-5 .1-.2-.1-.4-.2-.3zm-5.1 2.6c0-.2-.2-.2-.3 0-.4 1-.3 2.1.1 3 .1.1.2.1.2-.1-.2-1-.1-1.9 0-2.9zm-3.3 3.3c-1-.5-1.9-.9-2.7-1.7-.7-.8-1.2-1.7-1.7-2.6 0-.1-.2 0-.2.1.7 1.8 2 4.3 4.4 4.4.3 0 .3-.1.2-.2z" fill="#3a353a" stroke-width="none" opacity="1"></path><path id="SvgjsPath17555" d="M131.1 84.5c-1.1-1.4-2.1-2.8-3.2-4.1-.2-.2-.4-.1-.6 0-.1-.2-.2-.3-.5-.3-3.1.4-6.2.7-9.4.9-.7.1-1.4.1-2.1.1-.1 0-.1-.1-.2 0-2.1.1-4.1.1-6.1.4-.2 0-.2.3 0 .3 1.9.3 3.8.2 5.8.1-.5 1.6-.3 3.3.4 4.7-.2 0-.4.1-.6.1.1-.1.1-.2 0-.3-.7-.6-1.5-1-2.1-1.7-.7-.8-1.2-1.7-1.6-2.6-.1-.2-.4-.1-.3.1.3 1.8 1.8 3.8 3.7 4.4-1.2.2-2.3.3-3.5.5-.2 0-.1.3.1.3 5.8-.2 11.6-.9 17.4-1.5 1 .6 1.9 1.2 2.9 1.7.9.5 1.8 1.2 2.8 1.4h.2c.1 0 .2-.1.2-.2-.8-1.3-2.1-2.8-3.3-4.3zm-4-3.6c.1 0 .1 0 .2-.1v.1c.6.9 1.4 1.8 2.1 2.8-1.9.2-3.7 1-5 2.2-1.7.2-3.4.3-5.1.5.8-1 1.6-1.9 2.6-2.7 1.2-1 2.5-1.6 3.9-2.4.1-.1.1-.1.1-.2.4-.1.8-.1 1.2-.2zm-9.4 5.6c.3-.9.5-1.8 1-2.7.4-.8 1.1-1.5 1.6-2.2 1.6-.1 3.2-.3 4.8-.5-2.6.9-5 3-6.2 5.2-.4.1-.8.2-1.2.2zm-2.3-4.5c.9-.1 1.8-.2 2.7-.2.4 0 .9-.1 1.3-.1-1.3 1.2-2.2 3.2-2.3 4.9-.5.1-1 .1-1.5.2-.5-1.7-.5-3.1-.2-4.8zm13.5 4c.4 0 .7.1 1.1.1.4.1.9.2 1.3.1.1 0 .1-.2 0-.3-.4-.2-.8-.2-1.2-.3-.4-.1-.8-.1-1.2-.1-.1-.1-.2-.1-.3-.1-1.2.1-2.4.2-3.7.3 1.5-.9 3.1-1.4 4.8-1.9.4.5.8.9 1.1 1.4.8.9 1.5 1.9 2.3 2.8-.5-.3-1-.5-1.5-.7-.9-.4-1.8-.8-2.7-1.3zm-18.5-2.3c.2 0 .3-.2.1-.4-.5-.3-1-.5-1.5-.8-.5-.3-.9-.7-1.3-1.1-.1-.1-.2-.1-.2-.1-.1-.1-.3 0-.3.1.4 2.2 1.2 4.5 3 6.1.2.2.6-.1.4-.3-1.2-1.6-2.2-3.1-2.8-4.9.6.8 1.6 1.5 2.6 1.4z" fill="#1b141c" stroke-width="none" opacity="1"></path></g></g></g><g id="svga-group-nose-single-move" transform="matrix(1,0,0,1,0,0)"><g id="svga-group-nose-single"><path id="SvgjsPath17536" d="M97.72 89.37c-.8 3.33-.91 6.89-1.27 10.29-.38 3.64-1.08 7.4-1.03 11.06 0 .29.45.37.52.07.74-3.34.83-6.91 1.18-10.31.37-3.64 1.05-7.41.93-11.06 0-.19-.28-.24-.33-.05z" fill="#d17d43" stroke-width="none" opacity="1" transform="translate(0 2)"></path><path id="SvgjsPath17537" d="M94.71 108.8c-.98 1.31-1.8 2.73-2.52 4.2-.46.95-1.04 2.07-.73 3.16.5 1.8 2.79 2.36 4.28 1.51.44-.26.24-.95-.26-.95-.87-.01-1.89.27-2.58-.47-.84-.89-.01-2.5.36-3.4.55-1.32 1.22-2.59 1.74-3.92.07-.19-.19-.26-.29-.13z" fill="#d17d43" stroke-width="none" opacity="1" transform="translate(0 2)"></path><path id="SvgjsPath17538" d="M94.57 116.21c2.7-.2 3.21 3.2 5.78 3.28 2.2.07 2.37-3.24 4.46-3.14.24.01.32-.33.12-.45-2.37-1.4-2.81 2.72-4.99 2.46-1.29-.15-2.21-2.05-3.37-2.6-.79-.37-1.36-.34-2.13.01-.19.11-.09.46.13.44z" fill="#d17d43" stroke-width="none" opacity="1" transform="translate(0 2)"></path><path id="SvgjsPath17539" d="M104.07 117.75c1.78.4 3.85-.15 4.27-2.13.21-.99-.12-1.97-.64-2.81-.84-1.37-1.93-2.53-2.73-3.95-.13-.24-.47-.12-.48.13-.1 1.59 1.08 2.69 1.92 3.92.78 1.13 1.45 2.69.14 3.81-.6.51-1.74.42-2.48.56-.24.05-.23.42 0 .47z" fill="#d17d43" stroke-width="none" opacity="1" transform="translate(0 2)"></path><path id="SvgjsPath17540" d="M102.32 112.41c-.39-.7-1.4-.81-1.96-.25-.05.05-.23.28-.28.34-.06.08-.19.25-.21.28-.06.1-.12.2-.17.3l-.11.26c0-.01-.01.01-.03.05-.06.06-.12.13-.17.19-.17.18-.34.36-.48.57-.4.63-.08 1.35.46 1.75.83.62 2.03.12 2.61-.58.7-.84.89-1.92.34-2.91z" fill="#ffcdab" stroke-width="none" opacity="1" transform="translate(0 2)"></path></g></g><g id="svga-group-hair-front" transform="matrix(0.9599996000000002,0,0,0.9997996000000002,4.147017940711962,0.02146703890225865)"><path id="SvgjsPath17595" d="M160 89.7c-4.1-18.8-35.3-51.9-48.6-51.9-10.9 0-26.6 2.6-28.9 13.2-1.4-.3-3.6-.4-6.3 1.3-4.9 2.9-15.5 12.8-15.4 22.5.1 9.7 9.1 12.4 9.1 12.4-1.2-10.7-1.6-14.3 1.4-20.3s11.8-7.8 11.8-7.8c.3 1.1 8-9.7 18.2-10.5 10.5-.8 13.7 5.3 12.5 13s1.2 12.1 6.2 14.5c5 2.3 7.7-1.8 11.8 1.8 4.1 3.5 7.9 10.3 4.4 23.2-3.5 12.9-4.4 21.5 1.5 24.1s26.4-16.6 22.3-35.5z" fill="#1b141c" stroke-width="none" opacity="1"></path><path id="SvgjsPath17596" d="M180.6 133.3c-3.8-2.6-6.1-2.9-3.5-13 .2-1 .4-1.8.5-2.7 1.5-1.8 2.7-3.7 2.6-5.8-.2-5.3-13.1-7.7-14.3-10.8-1.2-3.1-3.1-6.7 1.9-18.6s1.9-23.2-11.5-25.6-6.9-6.7-10.5-13.9c-3.6-7.2-15.8-16.5-27.2-13.9-11.5 2.6-10-6.7-23.9-4.8s-8.6 6.9-14.6 9.8-7.9 2.2-9.6 5.3c-1.7 3.1-1.7 5.5-.5 8.4 0 0-4.5-5-14.3-1.9S30.6 58.1 37.3 69.3s5.5 11.5-5.7 20.8-6 16.7 2.6 23.2 6.9 9.8-1.7 15.3-11.7 18.6 1 26.3 13.1 12.9 12 18.9c-1.2 6 2.4 16.5 23.4 16.5 0 0-9.3-3.6-5.7-11.7s7.4-10.5 0-19.6-10.8-16.2-6.5-23.2 13.6-7.6 6.2-16.5-8.6-12.7-.7-18.9c7.9-6.2 11.5-8.8 5.7-18.6C62.2 72 70.5 58.3 83 59.3c0 0 2.2-7.4 11.5-12.2s24.6-4.1 24.4 4.8c-.2 8.8-6 16.5-.7 24.4 5.3 7.9 13.1 2.2 22.5 1.9 9.3-.2 14.8 11 3.6 23.9s-11.7 18.2-8.4 23.7 11.7.5 14.8 5.3c3.1 4.8-11.9 6.9-12.9 13.1s.7 8.8 7.2 11c6.4 2.1 8.4 11 .5 13.9-7.7 2.8-6.9 13.7-1 18.8l.3.3s-1.8-4.1.3-7.3c2-3.2 12.7-1.7 22.2-1.4 9.5.3 7.8-5.8 4.3-17s4.6-12.7 7.2-15.6c2.4-3 5.6-11 1.8-13.6z" fill="#2a232b" stroke-width="none" opacity="1"></path><path id="SvgjsPath17597" d="M73.9 53.6s-15.1-4.2-20.8 8.3 4.9 17 6.4 23.8C61 92.5 44.8 96.2 41 102.3c-3.8 6-2.3 12.8 9.4 19.3s-3 12.8-6 16.6 3 7.9 6.8 13.2c3.8 5.3 3 12.1 1.1 16.2s-1.9 7.2 1.5 9.8c0 0-3.4-2.6 1.5-10.9s-6.4-19.6-7.5-24.5c-1.1-4.9 9.8-10.9 11-14.7s-8.3-5.7-14.4-11.7c-6-6-3-12.8.8-14.7S63 93 64.1 89.6c1.1-3.4-9.8-12.1-9.8-18.5s.3-17.9 19.6-17.5zm3-3.1s1.9-7.5 9.4-11.7c7.6-4.2 29.8-6 37 0 7.2 6-3.4 19.6-.8 27.9s12.8 3.8 21.5 3c8.7-.8 17.4 3.8 15.5 14.7s-23 24.2-18.1 32.5c4.9 8.3 20.8-1.5 21.9 6.4 1.1 7.9-21.8 12.7-16.8 23.7s15.7 3.9 13.4 12.2-6 9.1-10.2 11.7c-4.1 2.6-3.8 5.7-3.8 5.7s.8-4.9 8.7-6.4 12.1-11.3 9.8-17.8-.5-11.1 3.6-19 8-15.5 3.5-17.7-16.9-.6-16.5-7.4c.4-6.8 7.9-21.5 8.3-29.1.4-7.6-.4-9.1-10.9-12.8-10.6-3.8-15.5-3-15.1-14 .4-11-7.9-17-14.3-18.9s-20.8-1.9-33.6 1.5c-12.9 3.5-12.5 15.5-12.5 15.5zm-7.7-.4s-10.4-.3-17 3.6-7.3 15.4.2 24.8-6.2 13-11 15.2-9.9 10.5-6.5 14.9c3.4 4.4 11.2 11.5 14.1 14.6 2.9 3.1-2.4 7.8-7.6 11.5s-6.7 7.8-3.9 11.2c2.8 3.4 11.5 7.6 12.6 12.6s-.3 8.6-.3 8.6 1-8.3-2.9-11c-3.9-2.8-15.6-4.5-16.5-13.6s11.4-11 13.4-15.1-2.3-10.4-4.7-12.2c-2.4-1.8-10.2-7.9-10.5-13.3-.3-5.3 4-10.5 9.7-13.1C44 86.2 48.2 85.7 49 82c.8-3.7-6.5-9.4-7.5-14.1-1-4.7-.8-11.5 6.3-15.4s12.7-3.7 21.4-2.4z" fill="#1b141c" stroke-width="none" opacity="1"></path><path id="SvgjsPath17598" d="M81.6 54.5s3.5-11.1 12.7-15.2 23.1-3.8 27.6 1 .4 13-1.5 17.6-4.7 11.8-1.1 15.2c3.6 3.5 10.4 2.6 14.9.8s16.7-4.1 21.4 2-.9 16.6-6.2 22.5c-5.3 5.9-10.7 11.8-10.1 16.9.6 5.1 5.7 6.5 15.5 6.9 9.8.4 3.6 6.9-7.4 15.8s2 16 2 16-7.1-1.7-7.7-7.2 3-8.6 7.1-11.4 10.7-8.6 9.3-10.4c-1.4-1.8-14.8 2.3-18.7-.4s-4.5-5.9-2.1-12.8 11.9-13.9 14.2-18.4 6.3-12.8 2.7-16.4-16.7-1.1-24.4 1.2-13.1-2.7-13.1-6.6-.9-3.9 3.6-15.8-1.7-15.7-5.9-16.6-21.7-3.5-32.8 15.3zm-5 3.9s-11.3 2.1-13 9.3 2.7 15.5 4.5 19.6c1.8 4.1-6 8.9-10.5 13s-6.9 7.8-3.9 12.5 10.2 10.1 9.5 13c-.8 2.9-3.8 4.5-3.8 4.5s4.4-4.8.6-7.7c-3.8-2.9-13.9-6.6-13.3-13.9.6-7.2 7.1-8.6 11.9-12.1s8.1-3.6 8.1-8.3-6-9-8-15.8c-1.8-6.7.7-11.8 17.9-14.1zm55.6-22.7s5.6 1 8 8.8.2 10.7 3.4 14.1 14.2 3 18 6.3c3.7 3.2 5.3 12.9 1.7 23.6 0 0 5.6-8.8 4.6-16.8s-6.3-8.5-17.6-12.4-5.3-10.2-8.5-16.8-9.6-6.8-9.6-6.8zm41 82.2c-1.9-3.3-6.1-3.6-9.5-3.6-4.7 0-9.5.4-11.3-5.3-1.5-4.7 1.4-9.2 3.3-13.3 3.5-7.4 9.7-19.5.3-25-4-2.3-8.6-2.3-13-1.7-3.7.6-7.8 2.1-11.6 1.7-7.6-.7-6.7-7.9-4.9-13.1.1-.2-.2-.3-.3-.1-1.5 3.4-3.1 7.7-.8 11.2 2.3 3.4 6.9 3.1 10.4 2.6 7-.9 16.4-3.9 22 2.4 5.9 6.7-1.9 19.2-4.8 25.7-1.6 3.7-3 8-.9 11.8 2 3.8 6.3 4 10.1 4.2 5 .1 11.9 1.2 9.9 8.6-.9 3.3-3.1 6.4-5 9.1-3.3 4.9-6.8 9.9-6 16.1 0 .4.6.4.6 0 .2-8.4 5.7-13.6 9.7-20.3 1.8-3.1 3.9-7.5 1.8-11zm-45.7-83.4c-5.6-3.4-10.6-2.4-16.8-2.5-6.1 0-10-6.2-16.1-5-2 .4-3.6 1.4-5.1 2.8-1.2 1.1-1.8 2.8-2.9 4-1.8 1.7-3.9 2.2-6 3.2-3.2 1.5-6.3 3.9-5.2 7.8.1.3.6.2.5-.1-.4-2.4 1.7-5.2 3.7-6.4 1.2-.7 2.6-1 3.9-1.6 1.4-.6 2.7-1.2 3.8-2.2 1.6-1.4 2.4-3.4 4.2-4.7 3.8-2.8 7.4-1.6 11.2.6 3.1 1.8 5.4 2.8 9 2.7 5.7-.2 10.4-.2 15.7 2 .1 0 .3-.5.1-.6zM63.9 53.2c-7.4 1.3-15 5.7-16.2 13.8-.5 3.2.4 6.2 2.1 8.9 3 4.7 11.1 8.9 7.2 15.4-4.5 7.3-17.1 5.7-20 14.6-2.5 7.3 4.5 13.1 9.9 16.5.2.1.4-.2.2-.3-3.6-2.9-7.9-5.8-9.2-10.5-1.9-6.7 3.5-10.4 8.8-12.5 4.9-1.9 10.6-3.6 12.5-9.1 2-5.7-3.1-8.7-6.4-12.4-4.1-4.5-5.7-10.1-2.3-15.6 3-4.9 8.3-7 13.5-8.5.1-.1.1-.3-.1-.3zm-8-4.3c-6.3 2.2-12.8 5.6-15.1 12.3-1 3-1 6 .3 8.9 2.1 4.8 6.8 8.2 5.3 14.2 0 .2.2.2.3.1 2.1-5.3-1.8-8.9-4.2-13.3-5.8-10.6 5-18.3 13.5-21.8.3-.1.2-.5-.1-.4zM174 111.4c-1.3-2-3.3-3.3-5.4-4.4-3-1.5-6.8-3.1-6.7-7.2 0-.3-.4-.4-.5-.1-.4 2.4.8 4.3 2.6 5.8 1.5 1.1 3.2 1.7 4.8 2.6 1.8 1 3.1 2.3 4.6 3.6.4.4.8.1.6-.3zm-3.6 36.2c-2.9.6-4.5 2.9-5.1 5.7-1.3 6.1 2.9 12.1-2.6 17.3-5.3 5-20.8 1.5-20.5 12.1 0 .2.3.2.3 0 .5-10.5 16.6-5.6 22.1-12.2 1.7-2.1 2.5-4.6 2.5-7.2.1-4.9-3.2-12.4 3.5-14.8.4-.3.3-1-.2-.9zM62.8 161.9c-.9-3-2.6-5.7-4.6-8.2-3.6-4.4-10.4-9.6-6-16 .2-.2-.2-.6-.4-.3-6.3 7 3.1 13.9 6.8 19.2 1.8 2.6 3.7 6 3.5 9.2-.2 3.9-3.1 6.1-4.5 9.4-1.3 3.2-1.2 6.4.3 9.4.1.3.6.1.5-.2-1-3.6-1-6.7.9-10.1 1-1.8 2.5-3.4 3.3-5.3 1-2.3 1-4.6.2-7.1zM55 183.1c-4.9-4.2-6.2-9.2-5-15.5.6-3.3 1.7-6.6 1-9.9-.4-2.1-1.4-3.8-2.9-5.3-3.3-3.2-12-5.7-8.5-12.5.1-.2-.2-.4-.4-.2-1.7 2.6-1.3 5.2.6 7.6 3.7 4.7 10 5.3 10.2 12.6.1 5.1-2.5 10-1.4 15.2.8 3.6 2.8 6.5 5.9 8.5.4.2.7-.2.5-.5z" fill="#3a353a" stroke-width="none" opacity="1"></path></g><g id="svga-group-glasses-single-move" transform="matrix(1,0,0,1,0,0)"><g id="svga-group-glasses-single"></g></g></g></g></g><rect id="svga-credit-rect" width="200" height="15" x="0" y="185" fill="#ecf0f1" opacity="0.5" style="display: none;"></rect><text id="svga-credit-text" font-family="Avenir Next, Roboto, Helvetica, Arial, sans-serif" font-size="10px" text-anchor="start" font-weight="400" size="10px" anchor="start" weight="400" fill="#333333" x="33.402061462402344" y="182.71133995056152" style="display: none;"><tspan id="SvgjsTspan17344" dy="13" x="33.402061462402344">Created on AvatarMaker.com</tspan></text></g><defs id="SvgjsDefs17296"></defs></svg>